<svg xmlns="http://www.w3.org/2000/svg" width="1403" height="366" viewBox="0 0 1403 366">
  <metadata><?xpacket begin="﻿" id="W5M0MpCehiHzreSzNTczkc9d"?>
<x:xmpmeta xmlns:x="adobe:ns:meta/" x:xmptk="Adobe XMP Core 5.6-c142 79.160924, 2017/07/13-01:06:39        ">
   <rdf:RDF xmlns:rdf="http://www.w3.org/1999/02/22-rdf-syntax-ns#">
      <rdf:Description rdf:about=""/>
   </rdf:RDF>
</x:xmpmeta>
                                                                                                    
                                                                                                    
                                                                                                    
                                                                                                    
                                                                                                    
                                                                                                    
                                                                                                    
                                                                                                    
                                                                                                    
                                                                                                    
                                                                                                    
                                                                                                    
                                                                                                    
                                                                                                    
                                                                                                    
                                                                                                    
                                                                                                    
                                                                                                    
                                                                                                    
                                                                                                    
                           
<?xpacket end="w"?></metadata>
<defs>
    <style>
      .cls-1 {
        fill: #9bb158;
        fill-rule: evenodd;
      }
    </style>
  </defs>
  <path id="Ovaal_1" data-name="Ovaal 1" class="cls-1" d="M543.173,320.1L475.01,166.813H459.632L394.2,320.1h22.358l19.195-44.951H500.53L520.815,320.1h22.358Zm-51.586-64.589H444.254l22.794-55.207Zm139.6-25.2-50.713-62.626h-20.5V320.1h21.813v-118.6l47.332,58.916h4.035l46.9-58.916V320.1h21.921V167.686H681.681Zm190.749-43.205V167.686H735.557V320.1h88.449V300.466H757.369V253.114h62.383V233.585H757.369V187.107h64.565Zm52.022,113.14V167.686H851.925V320.1h90.63V300.247h-68.6Zm174.064-113.14V167.686H961.641V320.1h88.449V300.466H983.453V253.114h62.387V233.585H983.453V187.107h64.567Zm176.46,17.238a75.408,75.408,0,0,0-29.23-28.258q-18.765-10.363-42.42-10.364-25.53,0-43.96,11.073a74.284,74.284,0,0,0-28.02,29.131,80.742,80.742,0,0,0-9.6,38.459,76.6,76.6,0,0,0,38.66,67.1q18.27,10.584,41.72,10.583,25.515,0,44.49-10.8a73.827,73.827,0,0,0,28.9-28.8,78.919,78.919,0,0,0,9.93-38.731A76.577,76.577,0,0,0,1224.48,204.345Zm-123.51,10.529a52.873,52.873,0,0,1,20.66-20.894q13.53-7.744,31.85-7.746,18.54,0,31.95,8.619a56.2,56.2,0,0,1,20.18,21.821,58.261,58.261,0,0,1,6.76,26.839q0,18.766-8.12,31.8a51.785,51.785,0,0,1-21.76,19.639,68.64,68.64,0,0,1-30.32,6.6,59.524,59.524,0,0,1-29.12-7.365,55.9,55.9,0,0,1-29.23-49.806A60.718,60.718,0,0,1,1100.97,214.874Zm280.99,71.081L1279.88,167.686h-17.99V320.1h20.94V202.818L1384.04,320.1h18.97V167.686h-21.05V285.955Zm-1196.955,32.6L348.663,160.71V318.552h46.366V-1.021H348.663V145.155L213.7-1.021H156.313l139.1,151.437-173.3,168.136s-17.519,18.431-44.081,18.431c-45.448,0-57.594-19.621-56.875-42.878,0.325-10.51,4.178-37.878,35.784-37.62,23.049,0.188,33.315,18.668,27.92,40.344-3.139,12.611-10.613,20.808-23.3,20.808s-22.979-8.59-22.979-23.532,12.555-16.271,15.281-16.271c8.768,0,15.853,11.659,15.853,16.271a8.156,8.156,0,1,1-16.308,0c0-1.82-7.783-4.606-7.783,0a15.942,15.942,0,1,0,31.875,0c0-9.014-3.228-27.712-22.394-27.712-4.3,0-26.159,2.032-26.159,27.712s14.6,33.4,32.616,33.4,38.823-14.954,38.823-33.4c0-10.017,1.593-53.137-45.9-53.137C8.944,240.968-2,283.131-2,296.829-2,325.966,6,362,77.106,362,149.625,362,185.005,318.552,185.005,318.552Z"/>
</svg>
